<svg xmlns="http://www.w3.org/2000/svg" viewBox="0 0 200 200" fill="black" aria-label="Zero Origin">
  <defs>
    <clipPath id="zo-top">
      <polygon points="-50,-50 250,-50 180,72 20,130"></polygon>
    </clipPath>
    <clipPath id="zo-bot">
      <polygon points="20,138 180,80 250,250 -50,250"></polygon>
    </clipPath>
  </defs>
  <g clip-path="url(#zo-top)">
    <path d="M 186 14 L 186 108 A 78 78 0 0 1 108 186 L 14 186 L 14 92 A 78 78 0 0 1 92 14 L 186 14 Z"></path>
  </g>
  <g clip-path="url(#zo-bot)">
    <path d="M 186 14 L 186 108 A 78 78 0 0 1 108 186 L 14 186 L 14 92 A 78 78 0 0 1 92 14 L 186 14 Z"></path>
  </g>
</svg>
